#N canvas 373 165 1444 558 10;
#X obj 574 62 loadbang;
#X obj 574 84 tgl 15 0 empty empty empty 17 7 0 10 -262144 -1 -1 0
1;
#X obj 574 106 metro 125;
#X obj 574 128 f;
#X obj 600 128 + 1;
#X msg 681 124 number \$1;
#X floatatom 681 101 5 0 0 0 - - -;
#X floatatom 661 51 5 0 0 0 - - -;
#X floatatom 701 151 5 0 0 0 - - -;
#X msg 701 174 offset \$1;
#X msg 661 74 length \$1;
#N canvas 110 395 450 300 synth 0;
#X obj 114 20 inlet;
#X obj 114 42 t b b;
#X obj 114 116 sig~;
#X obj 114 138 osc~;
#X obj 114 160 *~;
#X obj 114 182 outlet~;
#X msg 160 101 0 2 \, 1 10 2 \, 0 100 100;
#X obj 160 123 vline~;
#X obj 114 86 mtof;
#X msg 114 64 72;
#X connect 0 0 1 0;
#X connect 1 0 9 0;
#X connect 1 1 6 0;
#X connect 2 0 3 0;
#X connect 3 0 4 0;
#X connect 4 0 5 0;
#X connect 6 0 7 0;
#X connect 7 0 4 1;
#X connect 8 0 2 0;
#X connect 9 0 8 0;
#X restore 574 269 pd synth;
#X obj 574 431 dac~;
#X obj 582 239 bng 15 250 50 0 empty empty empty 17 7 0 10 -262144
-1 -1;
#X text 36 72 The greatest common divisor of two numbers is used rhythmically
giving the number of beats and silences \, generating almost all of
the most important World Music rhythms \, [2] (except Indian).[3] The
beats in the resulting rhythms are as equidistant as possible \; the
same results can be obtained from the Bresenham algorithm.;
#X obj 574 215 c_euclid 7 20 0;
#X msg 891 124 number \$1;
#X floatatom 891 101 5 0 0 0 - - -;
#X floatatom 871 51 5 0 0 0 - - -;
#X floatatom 911 151 5 0 0 0 - - -;
#X msg 911 174 offset \$1;
#X msg 871 74 length \$1;
#N canvas 110 395 385 234 synth 0;
#X obj 114 20 inlet;
#X obj 114 42 t b b;
#X obj 114 116 sig~;
#X obj 114 138 osc~;
#X obj 114 160 *~;
#X obj 114 182 outlet~;
#X msg 160 101 0 2 \, 1 10 2 \, 0 100 100;
#X obj 160 123 vline~;
#X obj 114 86 mtof;
#X msg 114 64 76;
#X connect 0 0 1 0;
#X connect 1 0 9 0;
#X connect 1 1 6 0;
#X connect 2 0 3 0;
#X connect 3 0 4 0;
#X connect 4 0 5 0;
#X connect 6 0 7 0;
#X connect 7 0 4 1;
#X connect 8 0 2 0;
#X connect 9 0 8 0;
#X restore 784 269 pd synth;
#X obj 792 239 bng 15 250 50 0 empty empty empty 17 7 0 10 -262144
-1 -1;
#X obj 574 391 *~ 0.2;
#X msg 1101 124 number \$1;
#X floatatom 1101 101 5 0 0 0 - - -;
#X floatatom 1081 51 5 0 0 0 - - -;
#X floatatom 1121 151 5 0 0 0 - - -;
#X msg 1121 174 offset \$1;
#X msg 1081 74 length \$1;
#N canvas 110 395 385 234 synth 0;
#X obj 114 20 inlet;
#X obj 114 42 t b b;
#X obj 114 116 sig~;
#X obj 114 138 osc~;
#X obj 114 160 *~;
#X obj 114 182 outlet~;
#X obj 160 123 vline~;
#X obj 114 86 mtof;
#X msg 114 64 81;
#X msg 160 101 0 2 \, 1 10 2 \, 0 100 100;
#X connect 0 0 1 0;
#X connect 1 0 8 0;
#X connect 1 1 9 0;
#X connect 2 0 3 0;
#X connect 3 0 4 0;
#X connect 4 0 5 0;
#X connect 6 0 4 1;
#X connect 7 0 2 0;
#X connect 8 0 7 0;
#X connect 9 0 6 0;
#X restore 994 269 pd synth;
#X obj 1002 239 bng 15 250 50 0 empty empty empty 17 7 0 10 -262144
-1 -1;
#X obj 784 192 spigot;
#X obj 994 192 spigot;
#X obj 817 172 tgl 15 0 empty empty empty 17 7 0 10 -262144 -1 -1 0
1;
#X obj 1027 171 tgl 15 0 empty empty empty 17 7 0 10 -262144 -1 -1
0 1;
#X obj 784 215 c_euclid 5 20 0;
#X obj 994 215 c_euclid 3 13 3;
#X msg 1311 124 number \$1;
#X floatatom 1311 101 5 0 0 0 - - -;
#X floatatom 1291 51 5 0 0 0 - - -;
#X floatatom 1331 151 5 0 0 0 - - -;
#X msg 1331 174 offset \$1;
#X msg 1291 74 length \$1;
#N canvas 110 395 391 269 synth 0;
#X obj 114 20 inlet;
#X obj 114 116 sig~;
#X obj 114 138 osc~;
#X obj 114 204 *~;
#X obj 114 226 outlet~;
#X obj 160 123 vline~;
#X obj 114 86 mtof;
#X obj 114 42 t f b;
#X obj 114 160 *~ 5;
#X obj 114 182 clip~ -1 1;
#X msg 160 101 0 2 \, 0.5 10 2 \, 0 150 100;
#X connect 0 0 7 0;
#X connect 1 0 2 0;
#X connect 2 0 8 0;
#X connect 3 0 4 0;
#X connect 5 0 3 1;
#X connect 6 0 1 0;
#X connect 7 0 6 0;
#X connect 7 1 10 0;
#X connect 8 0 9 0;
#X connect 9 0 3 0;
#X connect 10 0 5 0;
#X restore 1204 339 pd synth;
#X obj 1204 192 spigot;
#X obj 1237 171 tgl 15 0 empty empty empty 17 7 0 10 -262144 -1 -1
0 1;
#X obj 1204 215 c_euclid 3 13 3;
#X obj 1204 257 f;
#X obj 1230 257 + 1;
#X floatatom 1210 322 5 0 0 0 - - -;
#X obj 1214 238 bng 15 50 50 0 empty empty empty 17 7 0 10 -262144
-1 -1;
#X obj 1204 301 m_notes 5 72 0 4 7 9 11;
#X obj 1204 279 mod 8;
#X text 35 208 length - number of beats in the phrase;
#X text 35 228 number - number of beats to distribute within the phrase
;
#X text 35 248 offset (optional) - offset the beats within the phrase
;
#X text 1205 16 comment;
#N canvas 92 183 582 570 REFERENCE 1;
#X text 24 91 Argument 0:;
#X text 24 124 Inlet 0:;
#X text 24 144 Inlet 1:;
#X text 24 164 Outlet 0:;
#X text 24 184 Outlet 1:;
#X text 24 434 Tags:;
#X text 24 334 See also:;
#X text 24 234 Description: breath controller that analyses the mic
input volume;
#X text 24 31 Name: c_euclid;
#X text 24 51 Summary: generates Euclidian rhythms;
#X coords 0 -1 1 1 450 450 1 10 10;
#X restore 44 160 pd REFERENCE;
#X obj 5 7 cnv 15 450 20 empty empty empty 20 12 0 14 -261234 -66577
0;
#X obj 8 9 c_euclid;
#X text 89 10 - generates Euclidian rhythms;
#X connect 0 0 1 0;
#X connect 1 0 2 0;
#X connect 2 0 3 0;
#X connect 3 0 4 0;
#X connect 3 0 15 0;
#X connect 3 0 33 0;
#X connect 3 0 34 0;
#X connect 3 0 46 0;
#X connect 4 0 3 1;
#X connect 5 0 15 1;
#X connect 6 0 5 0;
#X connect 7 0 10 0;
#X connect 8 0 9 0;
#X connect 9 0 15 1;
#X connect 10 0 15 1;
#X connect 11 0 24 0;
#X connect 15 0 11 0;
#X connect 15 0 13 0;
#X connect 16 0 37 1;
#X connect 17 0 16 0;
#X connect 18 0 21 0;
#X connect 19 0 20 0;
#X connect 20 0 37 1;
#X connect 21 0 37 1;
#X connect 22 0 24 0;
#X connect 24 0 12 0;
#X connect 24 0 12 1;
#X connect 25 0 38 1;
#X connect 26 0 25 0;
#X connect 27 0 30 0;
#X connect 28 0 29 0;
#X connect 29 0 38 1;
#X connect 30 0 38 1;
#X connect 31 0 24 0;
#X connect 33 0 37 0;
#X connect 34 0 38 0;
#X connect 35 0 33 1;
#X connect 36 0 34 1;
#X connect 37 0 22 0;
#X connect 37 0 23 0;
#X connect 38 0 31 0;
#X connect 38 0 32 0;
#X connect 39 0 48 1;
#X connect 40 0 39 0;
#X connect 41 0 44 0;
#X connect 42 0 43 0;
#X connect 43 0 48 1;
#X connect 44 0 48 1;
#X connect 45 0 24 0;
#X connect 46 0 48 0;
#X connect 47 0 46 1;
#X connect 48 0 49 0;
#X connect 48 0 52 0;
#X connect 49 0 50 0;
#X connect 49 0 54 0;
#X connect 50 0 49 1;
#X connect 53 0 51 0;
#X connect 53 0 45 0;
#X connect 54 0 53 0;
