#N canvas 0 22 450 300 10;
#X obj 169 59 inlet;
#X obj 167 112 t a b;
#X msg 212 114 0;
#X obj 229 27 inlet;
#X msg 227 46 1;
#X obj 166 90 spigot 1;
#X obj 162 142 outlet;
#X connect 0 0 5 0;
#X connect 1 0 6 0;
#X connect 1 1 2 0;
#X connect 2 0 5 1;
#X connect 3 0 4 0;
#X connect 4 0 5 1;
#X connect 5 0 1 0;
