#N canvas 446 225 335 465 10;
#X obj 85 195 metro 250;
#X obj 85 264 f;
#X obj 111 264 + 1;
#X obj 85 61 inlet;
#X obj 136 49 loadbang;
#X obj 85 336 t f f f;
#X obj 85 358 s \$1-post-tick;
#X obj 104 378 s \$1-tick;
#X obj 124 398 s \$1-pre-tick;
#X obj 136 94 \$2;
#X obj 136 168 /;
#X obj 136 71 t b b;
#X obj 223 93 \$3;
#X obj 223 115 sel 0;
#X msg 223 137 4;
#X obj 136 117 swap 60000;
#X obj 136 138 /;
#X connect 0 0 1 0;
#X connect 1 0 2 0;
#X connect 1 0 5 0;
#X connect 2 0 1 1;
#X connect 3 0 0 0;
#X connect 4 0 11 0;
#X connect 5 0 6 0;
#X connect 5 1 7 0;
#X connect 5 2 8 0;
#X connect 9 0 15 0;
#X connect 10 0 0 1;
#X connect 11 0 9 0;
#X connect 11 1 12 0;
#X connect 12 0 13 0;
#X connect 13 0 14 0;
#X connect 13 1 10 1;
#X connect 14 0 10 1;
#X connect 15 0 16 0;
#X connect 15 1 16 1;
#X connect 16 0 10 0;
