#N canvas 0 22 226 278 10;
#X obj 60 152 until;
#X obj 60 177 f;
#X obj 86 177 + 1;
#X msg 105 143 0;
#X obj 60 105 t b b;
#X obj 60 128 \$1;
#X obj 108 37 loadbang;
#X obj 108 59 \$1;
#X obj 108 80 sel 0;
#X msg 108 102 100;
#X obj 60 81 inlet;
#X obj 60 201 outlet;
#X connect 0 0 1 0;
#X connect 1 0 2 0;
#X connect 1 0 11 0;
#X connect 2 0 1 1;
#X connect 3 0 1 1;
#X connect 4 0 5 0;
#X connect 4 1 3 0;
#X connect 5 0 0 0;
#X connect 6 0 7 0;
#X connect 7 0 8 0;
#X connect 8 0 9 0;
#X connect 9 0 5 1;
#X connect 10 0 4 0;
