#N canvas 116 157 450 300 10;
#X declare -path abs;
#X declare -path audio;
#X declare -path rj;
#N canvas 0 22 450 300 io 0;
#X obj 113 82 catch~ LEFT;
#X obj 213 82 catch~ RIGHT;
#X obj 113 237 dac~;
#X obj 113 192 *~;
#X obj 213 192 *~;
#X obj 228 168 lop~ 10;
#X obj 228 148 tgl 15 0 empty empty empty 17 7 0 10 -262144 -1 -1 1
1;
#X obj 228 125 loadbang;
#X connect 0 0 3 0;
#X connect 1 0 4 0;
#X connect 3 0 2 0;
#X connect 4 0 2 1;
#X connect 5 0 4 1;
#X connect 5 0 3 1;
#X connect 6 0 5 0;
#X connect 7 0 6 0;
#X restore 25 50 pd io;
#N canvas 0 22 450 300 timebase 0;
#X obj 106 52 loadbang;
#X obj 106 75 tgl 15 0 empty empty empty 17 7 0 10 -262144 -1 -1 1
1;
#X obj 106 97 metro 250;
#X obj 106 119 f;
#X obj 136 119 + 1;
#X obj 106 141 s tick;
#X connect 0 0 1 0;
#X connect 1 0 2 0;
#X connect 2 0 3 0;
#X connect 3 0 4 0;
#X connect 3 0 5 0;
#X connect 4 0 3 1;
#X restore 25 71 pd timebase;
#N canvas 0 22 450 300 init 0;
#X obj 62 56 declare -path abs;
#X obj 62 76 declare -path audio;
#X obj 62 96 declare -path rj;
#X restore 25 29 pd init;
